<?xml version="1.0" encoding="UTF-8"?>
<svg version="1.1" viewBox="0 0 1080 2132" xmlns="http://www.w3.org/2000/svg">
 <g fill="#fff">
  <path d="m-248 499.21c-0.20899 0-0.40942 0.08304-0.5572 0.2308-0.14778 0.14777-0.2308 0.3482-0.2308 0.5572l1e-3 1124c0 0.4352 0.3528 0.788 0.788 0.788l1574 1e-3c0.209 0 0.4094-0.083 0.5572-0.2308s0.2308-0.3482 0.2308-0.5572l-1e-3 -1124c0-0.43518-0.3528-0.788-0.788-0.788l-1574-1e-3z"/>
 </g>
 <g fill="#222b32">
  <path d="m677.59 947.35c-0.96374 0.06445-2.056 0.22485-2.4093 0.38565-0.3533 0.1605-1.6383 0.4176-2.8912 0.5781l-2.2487 0.2571-0.0964 68.039-0.0645 68.007 6.9711-0.0642 7.0032-0.0964 0.09644-68.681 0.0642-68.65-2.313 0.0642c-1.2849 0.03213-3.1482 0.09634-4.1118 0.16055z"/>
  <path d="m689.35 947.8c-0.06433 0.41774-0.12857 31.353-0.09644 68.714l0.06407 67.943 7.228 0.0014 7.2279-0.0014 0.09645-68.007 0.0642-67.975-2.4735-0.22496c-1.3814-0.12855-2.7306-0.3534-2.9876-0.4818-0.28904-0.1608-2.4093-0.3855-4.7223-0.51406l-4.2404-0.22484-0.16053 0.77086z"/>
  <path d="m662.37 950.27c-0.09646 0.16074-0.7389 0.4176-1.3815 0.54623-0.67456 0.12842-1.3492 0.32117-1.5419 0.48194-0.16063 0.12829-0.96373 0.41748-1.7668 0.61033-1.3814 0.3534-1.8633 0.54604-4.0156 1.4776-0.51391 0.25694-1.5097 0.61047-2.1522 0.83534-0.67468 0.2247-1.2208 0.5459-1.2208 0.67455 0 0.12841-0.2247 0.25695-0.4818 0.25695-0.4176 0-0.4818 7.3244-0.4176 64.634l0.0962 64.666 7.2281 0.0012 7.2279-0.0012v-134.28l-0.70679-0.09633c-0.35316-0.0642-0.77086 0.0324-0.86716 0.1928z"/>
  <path d="m709.88 950.4c-0.0963 0.22461-0.1284 30.486-0.0963 67.236l0.0963 66.818 7.2279 0.0014 7.2279-0.0014 0.06433-64.57 0.09644-64.57-2.8912-1.2207c-1.574-0.64235-3.0838-1.1886-3.3408-1.1886-0.25707 0-0.5461-0.12855-0.64257-0.28919-0.09643-0.1604-0.96373-0.48166-1.8631-0.67431-0.93154-0.2251-1.8311-0.51415-2.0238-0.64258-0.1607-0.16067-0.86746-0.35352-1.5099-0.48194-0.6746-0.12829-1.2207-0.35339-1.2207-0.51393 0-0.4498-0.96364-0.3535-1.1244 0.09645z"/>
  <path d="m642.61 958.5c-0.22485 0.2572-0.73877 0.57825-1.0922 0.70678-0.3855 0.12857-1.2207 0.64247-1.8631 1.1244-0.6425 0.51406-1.285 0.93154-1.3815 0.93154-0.1284 0-0.9957 0.57836-1.9596 1.2852-0.9636 0.70666-1.831 1.2849-1.9274 1.2849-0.12845 0-1.285 0.8673-2.602 1.9594l-2.3772 1.9276 0.0642 58.37 0.0963 58.37 6.8747 0.0961c3.7906 0.0323 7.0029-0.0319 7.1635-0.1926 0.1287-0.1284 0.2571-28.591 0.25723-63.188 0-66.015 0.03211-64.248-1.2529-62.674z"/>
  <path d="m730.02 1021.4 0.09646 63.06 7.2278 0.0014 7.228-0.0014 0.09654-58.016 0.06406-58.048-1.3491-1.1566c-0.771-0.6423-1.6384-1.3812-1.9275-1.638-0.32115-0.25696-0.6744-0.48196-0.77086-0.48196-0.09634 0-0.80324-0.5139-1.542-1.1242-0.77112-0.61036-1.4779-1.1244-1.6062-1.1244-0.32129 0-3.2124-2.0238-3.341-2.3451-0.0641-0.12845-0.25685-0.2249-0.4497-0.2249-0.16067 0-0.771-0.35325-1.317-0.771-0.57826-0.4176-1.3493-0.8673-1.7669-0.9958l-0.7068-0.1929 0.06424 63.06z"/>
  <path d="m620.64 975.97c-1.542 1.542-2.7948 2.9234-2.7948 3.0518 0 0.12853-0.93164 1.3813-2.088 2.7628-1.1565 1.3812-2.0882 2.6342-2.0882 2.7627 0 0.16065-1.028 1.6383-2.4735 3.5337-0.16064 0.1605-0.64244 0.93164-1.1244 1.6704l-0.89955 1.3815v93.481l7.2279 0.0012 7.2279-0.0012 1.5e-4 -55.736c0-30.646-0.0321-55.736-0.09631-55.736-0.03224 0-1.3492 1.253-2.8912 2.8269z"/>
  <path d="m750.58 1029.2 0.096 55.254 7.1639 0.0964 7.1316 0.0642v-45.841c0-44.717-0.032-45.906-0.6101-46.998-0.3535-0.61033-0.7711-1.4778-0.96387-1.8633-0.19287-0.41748-0.86753-1.3814-1.4776-2.1202-0.6104-0.771-1.1244-1.5098-1.1244-1.6383 0-0.1284-0.51393-0.8673-1.1244-1.6383-0.61036-0.7388-1.1243-1.4454-1.1243-1.5419 0-0.0964-0.2251-0.4499-0.4819-0.7711-4.0155-4.6581-5.1078-5.8786-6.2322-6.9708l-1.317-1.2528 0.0643 55.222z"/>
  <path d="m602.45 1005.5c-0.2569 0.86745-0.5461 1.6706-0.6744 1.8633-0.12855 0.16067-0.3535 0.83533-0.48194 1.4454-0.12856 0.61059-0.3855 1.3171-0.54616 1.5099-0.19273 0.2251-0.22484 0.41775-0.0964 0.41775 0.1285 0 0.0964 0.1926-0.09633 0.3855-0.19277 0.2247-0.41761 0.9958-0.54627 1.7026-0.1284 0.7068-0.35315 1.4135-0.4817 1.6062-0.1285 0.16066-0.4176 1.4132-0.64245 2.7306-0.19275 1.317-0.51405 2.6661-0.67465 2.9872-0.1607 0.2893-0.3855 1.6706-0.51394 3.0522-0.09646 1.349-0.3534 2.6659-0.54616 2.923-0.25694 0.3213-0.3534 8.6091-0.3534 29.394l-1e-4 28.944 3.2124 0.0012 3.2125-0.0012 0.09646-40.252c0.0321-22.102-0.0321-40.22-0.19276-40.22-0.1285 0-0.4497 0.67454-0.6747 1.5098z"/>
  <path d="m770.82 1045.3 0.0962 39.127 5.654 0.1928-0.12842-29.169c-0.09633-18.279-0.28906-29.843-0.51393-30.936-0.1606-0.96395-0.4819-2.6986-0.67467-3.8551-0.19273-1.1564-0.48183-2.3771-0.64243-2.7305-0.16067-0.35327-0.44973-1.6704-0.6746-2.8911-0.22496-1.2529-0.514-2.3131-0.64244-2.4094-0.09646-0.09644-0.38562-0.96377-0.61046-1.9275-0.22487-0.96365-0.5139-1.9274-0.64235-2.088-0.12878-0.19287-0.35339-0.80323-0.48195-1.3815-0.0964-0.546-0.3535-1.028-0.5139-1.028-0.16076 0-0.2571 15.323-0.225 39.095z"/>
  <path d="m596.64 1100.7v10.28l89.948 0.0012 89.948-0.0012v-20.56h-179.9v10.28z"/>
  <path d="m566.35 1116.6c-0.32116 0.3216-0.22486 74.689 0.09644 77.676 0.5781 5.2364 1.317 10.601 1.5099 11.083 0.1284 0.2568 0.38536 1.4135 0.6102 2.57 0.7389 3.8223 1.4456 6.9065 1.767 7.5491 0.1605 0.3533 0.44957 1.4133 0.6102 2.3772 0.19276 0.9636 0.44984 1.8953 0.61036 2.0879 0.16077 0.1929 0.3855 0.8674 0.51404 1.4778 0.1284 0.6103 0.3533 1.2849 0.4818 1.4455 0.16066 0.1929 0.4497 1.0603 0.6746 1.9275 0.22495 0.8994 0.57834 1.8953 0.8032 2.2488 0.19275 0.3535 0.4818 1.1243 0.6102 1.6704 0.12857 0.5784 0.35354 1.0598 0.5142 1.0598 0.16063 0 0.2889 0.2571 0.2889 0.5786 0 1.1885 9.1876 18.632 10.023 18.953 0.12855 0.064 0.25708 0.2893 0.25708 0.5139 0 0.1926 0.41761 0.8677 0.96363 1.4776 0.51404 0.6105 0.93164 1.2209 0.96374 1.3815 0 0.2249 2.345 3.2767 3.5658 4.5938 0.32117 0.3855 0.61035 0.8032 0.61035 0.9314 0 1.06 13.075 14.52 17.765 18.311 3.6942 2.9555 3.2766 2.6345 5.9109 4.7221 1.2848 1.0281 2.3771 1.8636 2.4735 1.8636 0.16066 0 2.3451 1.3811 2.9234 1.863 0.19274 0.1287 0.54604 0.3535 0.8031 0.4817 0.25694 0.1287 1.0279 0.5464 1.6704 0.9319 6.3606 3.9192 15.42 8.6094 16.64 8.6094 0.22485 0 0.77085 0.1926 1.2207 0.4497 1.317 0.7065 4.144 1.799 4.6258 1.799 0.225 0 0.8031 0.1929 1.2849 0.4495 0.48195 0.2571 1.6706 0.6426 2.6664 0.8674 0.96375 0.2249 1.7668 0.514 1.7668 0.6426 0 0.1607 0.73875 0.3535 1.6062 0.4817 0.89941 0.1284 1.6062 0.3213 1.6062 0.4497 0 0.1287 1.0602 0.4177 2.3451 0.6426 1.253 0.2249 2.4735 0.4819 2.6341 0.6106 0.19285 0.0962 1.0924 0.321 2.024 0.5134l1.6704 0.3218v72.472c0 60.908 0.0642 72.537 0.44982 72.858 0.32117 0.2568 6.5532 0.321 23.033 0.2893l22.616-0.0967 0.09634-72.825 0.06421-72.826 1.8632-0.2249c0.9959-0.0967 1.9917-0.3213 2.1524-0.4499 0.1927-0.1285 1.2528-0.4175 2.4093-0.6424 1.1564-0.1926 2.2486-0.4819 2.4092-0.6423 0.19285-0.1289 0.89965-0.3535 1.6062-0.4822 0.70679-0.1282 1.4457-0.321 1.6064-0.4497 0.1927-0.1284 1.0602-0.4497 1.9275-0.6743 0.89943-0.2251 1.7667-0.5144 1.9274-0.6428 0.19276-0.1282 0.77099-0.3213 1.2852-0.4495 1.4133-0.3213 5.4288-1.8633 7.6454-2.9555 0.514-0.2571 1.0602-0.45 1.2208-0.45 0.3533 0 3.887-1.6702 4.1438-1.9273 0.09644-0.1284 0.6748-0.3855 1.285-0.6425 0.61036-0.2569 1.1886-0.5139 1.2851-0.6424 0.0963-0.0966 0.5139-0.3535 0.9637-0.5786 0.4497-0.2246 1.3812-0.7385 2.088-1.1882 0.7068-0.4177 1.6062-0.9319 2.024-1.0925 0.41748-0.1927 1.2206-0.7068 1.799-1.1563 0.5781-0.4499 1.1565-0.803 1.2848-0.803 0.1284 0 0.8674-0.4497 1.6384-0.9641 0.771-0.5459 1.5098-0.9636 1.6384-0.9636 0.1283 0 0.83508-0.5137 1.606-1.124 0.7389-0.6106 1.4457-1.1245 1.542-1.1245 0.09646 0 0.4497-0.2249 0.77114-0.482 3.2123-2.8269 5.5253-4.6579 5.8144-4.6579 0.57834 0 16.094-15.612 16.094-16.191 0-0.1929 2.4092-3.2124 4.0156-5.1077 0.2569-0.2893 0.4818-0.6425 0.4818-0.7387 0-0.0965 0.514-0.8352 1.1565-1.6065 1.2528-1.5098 2.2809-3.1157 2.5699-4.0798 0.12856-0.2891 0.3213-0.5459 0.44973-0.5459 0.16067 0 0.48193-0.3855 0.73901-0.8994 0.86719-1.7349 2.2486-4.0799 2.6342-4.5618 0.19275-0.2571 0.57825-0.9958 0.8031-1.6062 0.2567-0.6104 0.51404-1.1887 0.6102-1.2852 0.09647-0.0964 0.54605-0.8994 0.9959-1.7666 0.4497-0.8996 0.9637-1.831 1.1565-2.0883 0.19284-0.2571 0.54624-1.0599 0.7711-1.7669 0.22485-0.7065 0.514-1.3489 0.6102-1.4451 0.2891-0.257 1.2208-2.281 1.6706-3.6945 0.22485-0.7068 0.51405-1.4456 0.64245-1.6062 0.3534-0.4497 1.8953-5.2681 1.8953-5.8145 0-0.2571 0.1285-0.4497 0.28916-0.4497 0.12854 0 0.4497-0.8994 0.67454-2.0239 0.2249-1.0921 0.51393-2.1521 0.6426-2.313 0.12854-0.1924 0.35327-0.8992 0.4817-1.606 0.1288-0.7068 0.3213-1.4455 0.4819-1.6064 0.12856-0.1926 0.4176-1.4778 0.6425-2.8589 0.2248-1.4136 0.514-2.7627 0.67466-3.052 0.32129-0.6423 1.1887-6.4248 1.6063-10.954 0.1605-1.8633 0.4497-3.8228 0.61033-4.3689 0.35327-1.0599 0.44971-74.882 0.12842-75.749-0.16065-0.4497-1.028-0.5139-6.425-0.5139h-6.232v37.071c0 24.382-0.09631 37.168-0.32127 37.296-0.16054 0.0964-0.3212 1.1567-0.3534 2.3454 0 1.1882-0.12843 3.0838-0.28895 4.2402-0.67469 4.979-1.3494 8.8663-1.6064 9.4766-0.1605 0.3535-0.4498 1.51-0.67454 2.5701-0.19276 1.06-0.48181 2.0559-0.61046 2.2488-0.1284 0.1604-0.3533 0.9314-0.4817 1.6704-0.12866 0.771-0.32117 1.4455-0.48193 1.5417-0.12842 0.0962-0.44983 0.9317-0.64234 1.8313-0.2251 0.9317-0.51403 1.8308-0.6427 2.0237-0.12843 0.1606-0.35327 0.803-0.48169 1.3811-0.12864 0.5784-0.41784 1.446-0.67468 1.9277-0.25706 0.4817-0.54616 1.3494-0.64246 1.8953-0.09643 0.5784-0.3214 1.0601-0.4498 1.0601-0.1607 0-0.3534 0.4177-0.48184 0.9318-0.22486 1.0918-6.0073 12.657-6.5855 13.203-0.0964 0.0964-0.739 1.0284-1.4134 2.0882-0.6748 1.06-1.51 2.3129-1.8312 2.7946-0.3534 0.482-0.61037 1.0284-0.61037 1.1888 0 0.1928-0.28903 0.4816-0.64243 0.6745-0.35354 0.1926-0.6426 0.5139-0.6426 0.7068s-0.546 0.9956-1.1886 1.7988c-0.6747 0.8033-1.2849 1.6387-1.3814 1.8633-0.28905 0.7068-5.4932 6.4893-8.8984 9.8623-3.405 3.4373-8.2237 7.7097-9.3159 8.3523-0.64246 0.3855-3.598 2.634-4.6581 3.5977-0.3212 0.2573-0.6746 0.4819-0.80325 0.4819-0.09619 0-0.67445 0.3535-1.2527 0.8032-0.57827 0.4497-1.1244 0.8032-1.2208 0.8032-0.09634 0-0.86718 0.4817-1.7025 1.0279-2.313 1.5739-2.7625 1.8633-3.6942 2.2807-0.51415 0.1927-0.8995 0.482-0.8995 0.6104s-0.16067 0.2571-0.3534 0.2571c-0.3533 0-3.8871 1.6387-4.1441 1.9275-0.09634 0.1284-0.67444 0.3855-1.2849 0.6425-0.6103 0.2569-1.1884 0.5459-1.2849 0.6424-0.0963 0.0964-0.67466 0.3855-1.285 0.6103-1.3172 0.482-3.0198 1.253-4.2402 1.8631-0.44985 0.2248-0.99595 0.4177-1.2208 0.4177-0.1927 0-0.9637 0.2571-1.7026 0.6106-0.7388 0.321-1.8311 0.7065-2.4093 0.8349-0.57826 0.1287-1.4457 0.4178-1.9274 0.6748-0.4819 0.2571-1.1887 0.4498-1.5742 0.4498-0.4176 0-0.7388 0.1286-0.7388 0.2888 0 0.1609-1.0923 0.4822-2.4094 0.7068-1.317 0.1928-2.4093 0.4821-2.4093 0.6105 0 0.1287-0.8672 0.3216-1.9274 0.45-1.06 0.1282-1.9918 0.353-2.088 0.4817-0.0643 0.1604-0.4819 0.2891-0.86753 0.2891-0.41747 0-1.6703 0.1606-2.8269 0.3532-1.1564 0.1929-2.7305 0.3535-3.5336 0.3535-0.83545 0-1.6705 0.1929-1.8954 0.3855-0.2892 0.3213-3.1803 0.4175-12.239 0.4175-9.0589 0-11.95-0.0962-12.271-0.4175-0.19265-0.1926-1.028-0.3855-1.831-0.4177-2.0561 0-9.9265-1.3813-11.115-1.8955-0.3533-0.1604-1.5419-0.4497-2.6661-0.6743-1.0923-0.1929-2.0883-0.5144-2.1846-0.6428-0.0963-0.1602-0.48194-0.2891-0.8673-0.2891-0.38564 0-1.1244-0.2246-1.6063-0.4817-0.51392-0.2571-1.5098-0.6106-2.2487-0.8029-0.73877-0.1929-1.831-0.5464-2.3772-0.8035-0.57824-0.2566-1.5419-0.7068-2.0881-0.9636-0.5783-0.2571-1.4456-0.5462-1.9274-0.6746-0.5139-0.0964-0.89953-0.3211-0.89953-0.4819 0-0.1607-0.25697-0.2891-0.54617-0.2891-0.8031 0-10.922-5.0437-12.336-6.1677-0.6424-0.4822-1.317-0.8997-1.5097-0.8997-0.16066 0-0.93151-0.4819-1.7027-1.06-0.8032-0.5462-1.6704-1.1888-1.9596-1.3494-1.5419-0.9317-4.4973-3.084-6.0714-4.4331-0.9637-0.835-1.9274-1.5098-2.0559-1.5098-0.16075 0-0.96373-0.6423-1.7668-1.4133-0.80322-0.771-2.5057-2.3775-3.8229-3.5982-4.1118-3.8547-12.014-12.817-12.625-14.327-0.12854-0.3213-0.38538-0.5784-0.57824-0.5784-0.16053 0-0.3213-0.1606-0.3213-0.3535 0-0.1926-0.5139-0.9636-1.1243-1.7024-0.61033-0.771-1.1244-1.5097-1.1244-1.6384 0-0.1607-0.35324-0.803-0.73889-1.4131-0.96375-1.478-2.859-4.4978-3.3408-5.333-1.2207-2.0881-5.5576-11.083-5.7504-11.886-0.12841-0.5461-0.41746-1.2529-0.64233-1.6062-0.22498-0.3533-0.51403-1.1885-0.61047-1.863-0.12842-0.6429-0.35326-1.1887-0.48196-1.1887-0.1284 0-0.35325-0.5459-0.4818-1.221-0.1284-0.6423-0.32116-1.3489-0.4817-1.5098-0.12864-0.1928-0.4177-1.1242-0.64256-2.0881-0.22484-0.9636-0.51394-1.9272-0.64257-2.0879-0.12842-0.1929-0.44971-1.1885-0.67457-2.2485-0.22485-1.0603-0.51403-2.0882-0.64245-2.249-0.12855-0.1927-0.32129-1.1243-0.44971-2.0879-0.12854-0.9637-0.35339-1.9598-0.51394-2.2488-0.28916-0.4819-1.0602-6.2322-1.5742-11.404-0.12853-1.6064-0.28905-19.467-0.28905-39.77l-0.03211-36.846-6.2001 1e-3c-3.4373-1e-3 -6.3284 0.0952-6.4248 0.2236z"/>
  <path d="m596.7 1156.2c0.0643 28.976 0.1926 39.931 0.4497 40.252 0.22497 0.257 0.4818 1.6062 0.61047 2.9875 0.12843 1.4136 0.35327 2.7947 0.48168 3.052 0.16075 0.2891 0.44985 1.6062 0.64245 2.9234 0.225 1.3168 0.5142 2.6018 0.6426 2.8911 0.16063 0.257 0.67455 1.7668 1.1565 3.373 0.4819 1.574 0.99583 3.0195 1.1244 3.2124 0.0963 0.1604 0.28904 0.7388 0.4176 1.2852 0.25693 1.0278 0.9315 2.6018 3.2124 7.6133 0.4498 0.9958 0.8353 1.9594 0.8353 2.1521 0 0.1608 0.0963 0.3535 0.25684 0.4179 0.12856 0.032 0.64256 0.8994 1.1244 1.8631 1.5419 2.9875 2.0238 3.7907 2.9234 4.9472 0.44956 0.6104 0.8352 1.2205 0.8352 1.3494 0 0.1282 0.64243 1.0918 1.4455 2.0879 0.80322 1.0278 1.4456 1.9275 1.4456 2.0559 0 0.2568 3.1161 4.0796 4.6581 5.686 0.6103 0.6423 1.1244 1.3172 1.1244 1.4776 0 0.257 1.7988 1.9919 6.9066 6.6821 2.5057 2.2805 6.1678 5.2683 6.457 5.2683 0.1284 0 0.8352 0.5137 1.6062 1.1243 0.7389 0.6103 1.5099 1.1242 1.7026 1.1242 0.19276 0 0.35326 0.1287 0.35326 0.3213 0 0.1607 0.4818 0.5462 1.0601 0.8032 0.54624 0.2571 1.6063 0.8353 2.313 1.2527 0.70664 0.4497 2.0881 1.1888 3.0517 1.7027 0.96377 0.4819 1.8312 0.9638 1.9275 1.0603 0.2891 0.2888 6.4249 3.2121 6.7462 3.2121 0.16055 0 0.3212 0.1285 0.3212 0.2893 0 0.1607 0.4818 0.3855 1.06 0.4817 0.54615 0.0967 1.4134 0.3858 1.8954 0.6426 0.48196 0.2571 1.3491 0.5461 1.9275 0.6746 0.57815 0.1286 1.2207 0.3535 1.3812 0.4819 0.19275 0.1284 1.1886 0.4175 2.2488 0.6426 1.0601 0.2248 2.0881 0.5136 2.2487 0.6423 0.19274 0.1284 1.4133 0.4175 2.7306 0.6426 1.3171 0.2249 2.5698 0.4819 2.7306 0.6101 0.32114 0.1929 3.6942 0.739 8.031 1.3176 2.9233 0.3531 16.672 0.3531 19.596 0 4.369-0.5786 7.7099-1.1247 8.0312-1.3174 0.19277-0.1284 1.4776-0.3854 2.8911-0.6103 1.4135-0.2246 2.7306-0.5139 2.8913-0.6423 0.1927-0.1287 1.2206-0.45 2.345-0.6426 1.0923-0.2251 1.9917-0.5142 1.9917-0.6426s0.54615-0.3533 1.2208-0.4817c0.64243-0.1284 1.3491-0.3213 1.5097-0.4499 0.19263-0.1285 0.96376-0.4495 1.7667-0.7066 1.5421-0.4817 12.528-5.8786 12.818-6.3284 0.0964-0.1286 0.54626-0.4177 0.99584-0.6425 0.44971-0.1929 1.0924-0.5462 1.4456-0.771 1.4779-0.8995 3.2446-2.024 3.5338-2.2808 0.19276-0.1287 1.1885-0.8672 2.2487-1.6704 5.6859-4.2083 12.753-10.987 16.448-15.773 1.6061-2.0559 3.5015-4.5937 3.9512-5.2683 0.25705-0.3858 0.96384-1.3494 1.5418-2.1201 0.54626-0.739 1.0282-1.4458 1.0282-1.51 0-0.0962 0.54602-1.0923 1.2528-2.1844 0.67455-1.1242 2.0559-3.7905 3.0518-5.9111 2.4734-5.2038 2.6662-5.5896 3.1158-7.0671 0.22486-0.7068 0.51405-1.4458 0.6426-1.6062 0.1285-0.1929 0.3213-0.8675 0.4498-1.542 0.12844-0.6426 0.35317-1.1885 0.4817-1.1885 0.16065 0 0.44984-0.8032 0.6426-1.7668 0.19274-0.9639 0.546-2.1526 0.8031-2.6343 0.22484-0.5142 0.5139-1.6704 0.64244-2.5701 0.12842-0.9314 0.3534-1.7668 0.48196-1.863 0.1605-0.0965 0.38535-1.1568 0.4818-2.3452 0.1285-1.1888 0.3534-2.313 0.4819-2.4734 0.73867-0.9639 0.96377-11.308 0.9635-46.356v-37.007l-89.948 0.0012-89.98-0.0012 0.0963 39.77z"/>
  <path d="m564.8 639.99c-254.19 1e-4 -472.48 197.58-500 461.67-8.6852 83.344 2.5867 164.12 29.902 237.3l-25.245-246.44 25.246 246.45c12.052 32.282 27.225 63.084 45.183 91.976q11.774 3.4077 21.815 3.7141l1.6652-5.2671 5.4391-0.4129 2.5982-0.1975 0.07121 2.6573 9.94-0.3714q0.90928 9.0911 1.8154 18.181 6.9354-0.6917 13.871-1.3824c-10.108-13.291-19.534-27.14-28.226-41.488l-0.00307 0.0019c-3.394-5.6089-6.679-11.293-9.849-17.049l-0.00285 0.0019q0-0.0019 0-0.0019c-45.734-83.049-67.54-181.2-56.85-283.78 1.2293-11.796 2.8668-23.445 4.8966-34.936l-0.002411 0.0013c40.242-227.79 234.64-393.04 457.87-393.04 15.614 0 31.368 0.808 47.222 2.4602 213.84 22.284 378.54 191.07 408.93 400.26 5.6993 39.234 6.6744 79.889 2.3626 121.27-8.4682 81.263-36.317 155.6-78.287 218.7q-0.0011 0.0098-0.0025 0.0201l-0.01096 0.0019c-2.0412 3.0667-4.1161 6.1094-6.224 9.1243l5.0042 0.4487 0.0713 0.0064 1.5928 5.289q17.791-0.2988 41.144-10.254c7.849-12.786 15.162-25.963 21.914-39.502l33.867-291.08-33.852 291.05c27.285-54.713 45.425-115.32 52.155-179.91 29.354-281.69-169.26-534.08-444.77-562.79-17.213-1.7941-34.313-2.6714-51.254-2.6714z"/>
  <path d="m961.92 1066.2 20.158 2.0132 0.3324 6.8933 9.2718 0.3503 2.9562-7.854q25.303 8.9043 53.046 28.924l-37.419 321.73q-35.019 18.702-59.505 19.112l-1.5933-5.2893-8.028-0.7204-0.10755 2.6555-12.109-0.6179 32.998-367.2z"/>
 </g>
 <g fill="#ff1800">
  <path d="m892.87 1022.8 83.783 9.5154q-23.809 209.68-47.618 419.37-41.891-4.7574-83.783-9.5139 23.809-209.69 47.618-419.37z"/>
  <path d="m982.08 1068.3-40.608 363.11 7.6922 0.6911q22.102-180.52 44.204-361.04l-0.0112 0.0015-1.676 4.4221-9.2718-0.3503-0.3291-6.8303z"/>
 </g>
 <g fill="#222b32">
  <path d="m160.79 1065.6-20.184 1.7366-0.42657 6.8884-9.2757 0.2236-2.8479-7.8945q-25.423 8.5566-53.438 28.195l33.008 322.21q34.759 19.18 59.237 19.926l1.6652-5.2666 8.0374-0.6111 0.07118 2.6573 12.116-0.4522-27.963-367.61z"/>
 </g>
 <g fill="#ff1800">
  <path d="m230.43 1023.1-83.905 8.3669q20.934 209.99 41.868 419.98 41.953-4.1828 83.905-8.365-20.934-209.99-41.868-419.98z"/>
  <path d="m140.61 1067.4 35.629 363.63-7.7011 0.5857q-19.627-180.81-39.253-361.62l0.01112 0.0022 1.6152 4.4451 9.2757-0.2236 0.42265-6.8245z"/>
 </g>
 <path d="m664.67 763.04v1e-3 -1e-3 1e-3 -1e-3 1e-3 -1e-3 1e-3 -1e-3 1e-3m-0.0275 0.3119v0.0012-0.0012 0.0012-0.0012 0.0012-0.0012 0.0012-0.0012z"/>
 <g fill="#222b32" fill-opacity=".58431">
  <path d="m1121.7 1452.8-5.0502 0.8554q0.2792 0.3194-39.303 1.6087-18.224 0.4978-43.277 0.9443-50.106 0.8936-127.53 1.5825-38.981 0.344-81.038 0.5974-107.83 0.5535-133.09 0.555-93.343 0.2336-198.99 0.1035-100.83-0.1819-183.71-0.6751-99.678-0.6843-114.23-0.9148-34.712-0.3635-64.938-0.8047-120.81-1.7768-113.93-4.1147 5.2906-1.209 43.016-2.2017 51.535-1.1997 70.037-1.3784 28.468-0.4211 63.766-0.7912 14.989-0.2371 118.04-0.9546 42.057-0.2532 87.19-0.4155 90.267-0.3248 192.84-0.2855 106.09 0.0604 193.2 0.4903 43.684 0.2077 82.883 0.4932 22.403 0.0942 107.5 1.0317 65.817 0.8144 103.14 1.8201 41.151 1.0498 43.475 2.4541"/>
 </g>
 <path d="m373.23 996.44q-9.561-3.0957-19.632-0.13125-9.2265 2.8543-13.879 10.474-5.2392 8.3413-5.0285 28.765l9.3678 9.2012 44.764-15.71q3.9201-10.636-0.2774-18.566-5.35-10.559-15.3-14.028"/>
 <path d="m489.38 1395.2-5.8903 18.923q-5.6736 5.3078-6.4299 9.2268-1.1852 6.0959 4.2769 13.546 4.1825 5.3821 9.2842 6.9485 1.6334 0.5201 4.1035 0.7805 14.44 0.272 16.576 1.159 1.5092-0.0591 17.15 6.0112 2.7999 0.9319 5.4331 1.4683 11.311 2.3855 22.446-6.4864 10.651-9.5139 5.3083-17.593-1.6778-2.1345-4.1614-3.1731-1.4404-0.5922-2.698-0.9091-7.4285-1.5711-8.9114-2.0716-3.3784-1.1382-5.2681-2.7602-5.0361-4.2366-8.1659-15.961l-42.893-9.074"/>
 <path d="m532.17 1399.1q-0.6298 0.8848-5e-4 0.0052m-0.33974 0.4902-9.4995 13.726q-3.8993-2.3843-4.7552-0.8181-1.0115 1.1128 0.15674 7.4477l4.5656-6.5818 0.0824 0.0386q2.2268 1.4548 6.2858 4.9529 18.219 16.374 19.03 16.846 4.4676 3.7234 7.2243 5.1216 4.3631 2.3762 7.301-0.3611 8.2928-8.6672 10.322-11.355 3.022-3.7957 3.6886-6.3033 1.339-4.1902-5.1124-7.3987-2.7812-1.4487-8.7965-3.5671-2.2758-0.8706-20.769-6.8799-3.3799-1.1364-5.1896-1.8386-5.039-1.9314-4.5484-2.9773"/>
 <path d="m400.42 1304.9-10.86 3.5354-0.5102 10.006 0.00923 0.0146 11.859 0.3437-0.49784-13.893"/>
 <path d="m299.78 1211.8q-7.7749 50.099 3.7478 66.3 4.5031 6.4941 14.005 10.229 4.7793 2.3777 28.036 6.262 3.4009 0.8174 6.0836 2.103 3.1081 0.9292 13.052 10.002 2.3482 1.6455 4.3188 2.3899 6.554 2.9082 24.208 1.1473 61.192-8.535 118.66-14.851l-211.98-83.529"/>
 <g fill="#ffb48e">
  <path d="m433.24 1158.5-25.286 7.9868q10.544 37.036 17.43 46.131 6.1111 9.0759 13.873 5.8144 8.5894-4.3537 10.79-16.671 2.5196-15.871-16.764-43.198"/>
 </g>
 <g fill="#c6564b">
  <path d="m326.4 1077.3-1.8342 7.5052-34.8 19.238q-13.155 28.549-12.327 43.536-0.10059 6.7546 1.654 19.318l43.885-2.3513q-8.2921 49.804-7.2406 65.59 0.39598 21.163 9.9475 38.716l100.58-57.698-9.7097-45.152 20.774-5.0586q-7.6334-29.688-19.662-51.193l-37.1-18.385-0.95613-9.0984-52.943-4.9402"/>
 </g>
 <g fill="#222b32">
  <path d="m500.3 1293.3 6.0502 59.536-26.29-59.527 19.83 0.0022m-94.152-82.143q-35.315-0.2749-57.458 17.256-27.307 21.134-22.089 43.545 35.371 6.6456 46.687 10.925 9.337 1.5425 43.943 17.549 4.5741 1.6252 13.249 2.3291 4.6535 17.84 8.8779 25.125 32.12 42.719 34.527 50.08 3.5678 6.0783 10.54 30.204l58.214-3.4751q11.033-119.84 12.076-128.2 1.1634-9.5058-2.207-18.386-16.252-38.248-145.89-46.942z"/>
 </g>
 <g fill="#ffb48e">
  <path d="m325.12 1158.8-44.236 6.3557q2.5787 18.62 6.731 30.021 3.5655 10.271 13.784 26.135l29.604 6.8662q6.5113 1.4702 7.1984 1.2619 5.8413-0.7466 9.982-0.9389l34.477-1.2119q10.156-0.4842 15.767-1.1614 12.552-1.5232 12.529-5.2495 7.6822 7.6799 14.46 7.1518 5.4307-0.5378 10.372-6.2214 4.3981-5.4849 3.4626-10.479-2.86-8.6215-20.503-10.428-5.4339-0.4329-11.638 0.7019-2.6523 0.3071-16.931 4.4214-3.0425 0.736-5.1655 0.9799-5.6493 0.7356-12.237-0.4914-9.5985-1.3369-45.614-16.311 3.6358-9.7143-2.0168-31.292"/>
 </g>
 <path d="m565.9 1152.1-93.452 1.9475-43.035 72.048-60.916-1.499-0.01975 6.4907 58.015 10.76 92.457-4.7615 3.6639-10.991 43.245-73.915"/>
 <g fill="#ffbe80">
  <path d="m396.85 1224.1q-0.96013-1.1331-11.324-2.5061-12.368-1.5381-16.192-1.0667-1.5971 0.1743-2.4855 0.8606l-1.3861 6.4553q3.887-0.1098 12.567-0.7727 7.1692-0.5381 11.46-1.0483 7.9401-0.9409 7.3708-1.9082"/>
 </g>
 <path d="m402.66 1316.4-15.031 0.1753-0.10977 71.165 17.649-0.3323-2.5065-70.953"/>
 <path d="m484.41 1407.2q-3.2888 4.9849-4.5361 7.8179-1.3298 2.8535-2.8441 8.4292l9.9527-3.0261 1.5113-11.739-4.0651-1.4743"/>
 <path d="m319.8 1255.3 6.478 17.148q-0.5745-5.0447-0.8474-6.8438l-5.6268-10.298"/>
 <g fill="#ffb48e">
  <path d="m357.4 1013.3q-6.8367 0.1234-8.5292 3.652-0.53537 1.1456-0.59262 2.9203-0.10485 0.64916 0.35275 6.0217 0.00544 1.3005-0.19064 1.7778-0.2399 0.7705-0.91466 1.3294l-2.8153 1.8303q-0.60541 0.6365-0.79181 1.7432-0.19657 1.1838-0.08334 2.7175l0.56454 4.9333-3.1164 0.5647q0.6875-3.8437-5.6084-8.4277-2.7609-1.5527-3.532 0.8206-1.0895 4.9502 1.4456 13.959 0.7973 2.5053 1.8044 3.7861 0.5231 0.8818 3.177 2.5723 0.4108 0.3601 0.71813 0.9008 0.7511 1.448 0.92637 4.0801 0.66721 10.327-4.6732 20.473l21.591 7.9406 12.397 19.978 5.1041-17.562 1.2672-12.645q6.9932-7.0312 11.944-23.397 0.49588-2.0808 0.64737-4.2559l0.27185-8.9101 0.81073-10.758q0.23425-4.458-0.11675-7.1195-0.50056-5.0464-4.1028-5.8997-1.0235-0.29113-2.6739-0.33227-7.937 0.38403-9.323 0.04897-1.1864 0.04857-11.546-2.3295-2.4241-0.4199-4.398-0.4122"/>
 </g>
 <g fill-opacity=".23529">
  <path d="m346.19 1068.6q1.107 1.3245 0.02218 0.0244m0.57622 0.6917 13.582 16.558 13.97-8.5386q-7.8315 3.9524-14.038 2.1631-5.9928-1.7822-13.487-10.154"/>
 </g>
 <g fill-opacity=".11765">
  <path d="m322 1123.1 3.1361 32.685q0.70542-4.7832 0.82474-7.6763 0.15897-3.2551-0.16003-6.6069-0.62623-6.5989-3.7979-18.391l-0.0029-0.01zm98.171 11.297-1.674 29.591q1.8342-4.6006 2.526-7.3242 0.81645-3.1177 0.97774-6.083 0.34143-5.9644-1.8255-16.163l-0.00425-0.0202zm-35.652 60.864q-10.231-0.0517-25.303 1.8125l53.293 1.4016 0.04577 8e-4q-9.5092-1.7254-14.917-2.357-6.1009-0.7382-11.682-0.8422-0.70645-0.0127-1.4373-0.0157zm135.9 66.905-17.899 25.109q7.8252-6.1975 10.992-10.816 3.6186-5.0583 6.8946-14.257l0.01234-0.0351zm-87.728 16.093-6.6419 12.098q2.5735-0.8516 3.6862-1.6026 1.2915-0.8278 1.9724-2.0595 1.3506-2.4456 0.98453-8.4297l-0.00116-0.0064zm17.841-35.494q6.8788 3.1306 10.194 5.9795 4.0635 3.334 6.8121 8.3806 5.0267 8.5139 10.519 37.309l-2.3676-40.382-25.155-11.287zm-13.067 44.56-7.5204 11.097 5.947-3.0542 1.57-8.0264 0.00334-0.0166zm69.629 65.823 11.46 53.909q0.5066-10.798 0.22766-16.409-0.26331-6.4426-1.4378-11.972-2.3165-10.898-10.239-25.51l-0.01024-0.0176zm16.218 53.46q17.58 10.496 25.922 16.242 7.4564 5.1035 10.465 8.8066l-7.688-11.285-0.0299-0.0432-28.666-13.721zm36.4 25.064 2.4343 3.5705q-1.2639-2.1677-2.4053-3.5359l-0.029-0.0346z"/>
 </g>
 <g fill="#fff" fill-opacity=".38431">
  <path d="m559.82 1444.5q1.9642-4.1631-3.1004-8.7544-5.3708-4.5594-14.063-6.3716-9.84-1.8545-20.304-0.4756-4.0843 0.5606-6.6838 1.5579-1.9583 0.7417-4.5798 3.0317-0.59076 0.3132-1.4128 0.325-1.1537 0.0034-3.3068-0.5699l-11.966-3.6277q-3.28-0.9165-5.3334-1.2675-6.6445-1.1377-11.782-0.2857l0.65558 3.3281q2.0405 3.7071 3.5453 5.722 2.9765 3.9975 7.112 6.0388 1.2355 0.5811 2.6095 0.8079 9.3284 0.6777 15.503 2.1025 3.03 0.6904 6.0241 1.5847l11.779 3.7661q2.864 0.8201 5.5641 1.3526 8.667 1.7661 17.156-0.4974 9.7477-2.7578 12.54-7.6855"/>
 </g>
 <path d="m353.01 1379.9 88.607 5e-4q0 33.607 0 67.215-44.304 5e-4 -88.607 7e-4 0-33.608 0-67.216"/>
 <path d="m328.57 1416.8 134.27 0.0012q0 17.141 0 34.283-67.135 5e-4 -134.27 0.0012 0-17.143 0-34.285"/>
</svg>
