<?xml version='1.0' encoding='utf-8'?>
<svg xmlns="http://www.w3.org/2000/svg" version="1.1" width="600px" height="976px" viewBox="0 0 600 976"> <g id="layer1"> <g> <g style="fill:rgb(0,0,0); fill-opacity:1.0; stroke-linejoin: miter"> <path d="M311.7124,311.55988C311.00046,311.6855,309.79993,312.14618,309.6603,312.3556C309.6184,312.42535,310.51184,312.4812,311.62866,312.4812C313.5691,312.49518,313.75058,312.50916,315.0349,312.9419C316.2913,313.36072,316.6822,313.58405,316.5007,313.7516C316.4588,313.79346,315.74686,313.72363,314.90924,313.58405C312.07538,313.10944,305.0954,313.36072,302.17773,314.03076C301.6752,314.14246,300.2094,314.58917,298.91113,315.008C296.98462,315.65015,296.37042,315.91534,295.37924,316.57147L294.17868,317.3672L294.89063,317.40906C295.40717,317.437,295.9516,317.32532,296.87296,317.0182C298.11542,316.58545,300.4607,316.26434,300.1396,316.57147C300.0698,316.6413,299.3718,316.93445,298.604,317.2276C296.4821,318.0373,294.56958,319.16803,293.0619,320.49426C292.28012,321.19226,290.3397,323.4677,290.11633,323.9563C290.0326,324.15173,289.7115,324.43097,289.40436,324.58453C287.25452,325.65942,284.76965,328.3258,284.22522,330.0987C284.14148,330.39185,284.18335,330.4198,284.6859,330.4198L285.21637,330.4198L284.21124,332.43C282.99673,334.87305,282.56396,336.08752,282.59192,337.1206C282.6198,338.33508,283.16425,339.5775,283.28992,338.68408C283.3178,338.5166,283.4295,338.37695,283.5412,338.37695C283.70868,338.37695,283.73663,338.9912,283.72266,342.31366C283.72266,344.49146,283.6668,346.72504,283.61096,347.26947C283.51324,348.26062,283.52722,348.28857,283.83435,348.28857C284.08563,348.28857,284.15543,348.19086,284.2392,347.66034C284.28107,347.31134,284.37878,346.9903,284.44858,346.94843C284.51837,346.9065,284.57422,346.9065,284.57422,346.93445C284.57422,346.96234,284.644,347.35327,284.72778,347.8139C284.81152,348.26062,284.9651,349.39142,285.04886,350.31274L285.21637,351.98798L285.39786,351.19226C285.49557,350.75946,285.56537,349.96375,285.56537,349.44727C285.56537,348.33044,285.6352,348.00934,285.91437,348.00934C286.06793,348.00934,286.1098,347.70227,286.1098,346.34814C286.1098,345.3849,286.16565,344.64502,286.24942,344.58917C286.3332,344.5473,286.38904,344.63104,286.38904,344.77063C286.38904,344.9242,286.58447,345.69202,286.82178,346.48773C287.6873,349.36346,288.1759,353.0489,287.92462,354.6543C287.7152,355.96655,287.07306,357.5301,286.2215,358.8144C284.53235,361.34113,284.56024,361.29926,284.644,361.85767C284.6859,362.15082,284.79758,362.5417,284.88135,362.7511C285.09076,363.2118,286.44485,363.8958,287.46393,364.06335C289.0135,364.31464,289.27875,364.8172,288.6924,366.3109C288.44113,366.98096,288.3434,367.39978,288.4132,367.67896C288.51093,368.13965,289.0833,368.7818,289.55792,368.96332C289.83713,369.06104,289.85107,369.1308,289.7394,369.43793C289.54398,369.9405,289.55792,371.36444,289.76733,371.81116C289.87903,372.04846,290.10236,372.21594,290.49326,372.32764C291.3867,372.57892,291.49835,372.76044,291.6659,374.35187C291.91718,376.82275,292.8106,378.21875,294.4439,378.7213C295.93762,379.182,296.90088,378.91675,301.07492,376.9065C304.886,375.07776,307.7478,374.14246,308.99023,374.30994C310.6096,374.53333,312.24292,375.69202,315.23035,378.76318C317.17078,380.74554,320.7166,385.17084,321.35876,386.38538L321.58212,386.8181L320.67474,386.8181L319.76733,386.8181L318.80408,388.8004C317.68732,391.13177,316.3192,393.5608,315.53748,394.62177C314.63007,395.82233,313.79248,397.53937,313.40158,398.96332C312.71753,401.44818,312.01953,402.85815,310.40018,405.0359C308.34808,407.786,306.82642,410.29883,305.06747,413.8307C302.41507,419.12152,300.5863,421.63428,294.70917,428.00006C290.35364,432.7185,287.07306,435.17548,284.7138,435.52448C283.51324,435.69202,282.48022,436.09686,281.07025,436.94843C277.8874,438.8609,274.9837,441.7506,274.45325,443.53754C274.00653,445.01727,274.27176,447.39044,275.15125,449.7218C275.34668,450.25226,276.36575,452.38812,277.4267,454.48212C278.94836,457.5254,279.29736,458.3211,279.15775,458.46075C278.87854,458.73993,277.10562,458.7818,276.68683,458.5166C276.3518,458.2932,276.33783,458.23737,276.33783,456.71576L276.33783,455.15222L270.64215,455.11035C267.51514,455.0824,264.08096,455.04053,263.00604,454.99866C261.93112,454.97076,259.3625,454.9428,257.29642,454.9428L253.54118,454.9428L253.6389,431.3086C253.68079,418.3258,253.76454,403.34674,253.80641,398.0559L253.90414,388.42352L253.37366,387.96283C252.78734,387.4463,252.81526,387.25085,253.4295,387.50214C253.9181,387.71155,254.35086,388.15826,254.49046,388.591C254.53233,388.77252,254.63005,388.9121,254.6859,388.9121C254.81154,388.9121,256.09586,386.62268,256.09586,386.41327C256.09586,386.31555,255.95625,386.28766,255.78874,386.32953C254.18333,386.69244,252.89902,386.97168,251.83806,387.1671C251.15402,387.29272,250.02327,387.5161,249.32526,387.66968C248.64124,387.80927,247.80362,387.9768,247.48254,388.01868C247.1475,388.07452,246.88226,388.15826,246.88226,388.2281C246.88226,388.29785,247.34296,388.591,247.90134,388.89813C248.44579,389.20526,249.1717,389.6101,249.50674,389.80554L250.09306,390.16852L250.09306,394.21692L250.09306,398.26532L250.51186,398.26532L250.93066,398.26532L250.93066,405.76178C250.93066,409.89398,250.88878,422.6394,250.83295,434.1006L250.74918,454.91492L246.82643,454.85907C227.0591,454.56592,218.1666,454.34253,217.95718,454.13312C217.91531,454.07733,217.60818,453.37927,217.28711,452.56964L216.70079,451.10382L216.78455,448.94C216.8404,447.75342,216.91019,446.52496,216.95206,446.21783C217.76175,439.37744,219.66031,434.85443,224.01581,429.39606C225.41182,427.65106,227.33829,425.5431,231.87529,420.81067C233.718,418.88422,235.57468,416.90186,236.00745,416.41327C236.95673,415.3244,238.29688,413.4817,238.6738,412.72784C238.82736,412.42072,239.06468,412.07172,239.20428,411.96002C239.7208,411.5133,239.9302,408.6236,239.56723,407.24158C238.98093,405.0219,237.02652,402.87207,233.32712,400.3593C230.22801,398.25134,228.55281,395.85022,228.34341,393.22577C228.18985,391.07593,229.4602,389.2611,232.02884,387.96283L232.8804,387.5301L233.18753,387.94885C233.60632,388.50726,234.22057,388.47937,234.29037,387.893C234.3462,387.46027,234.66728,387.39044,235.10004,387.72552C235.51884,388.04657,235.82596,387.99072,235.8818,387.57196C235.9516,386.99957,236.34248,386.8181,236.69148,387.20898C237.24988,387.80927,237.57095,387.40442,237.18008,386.59473C237.05444,386.32953,236.87296,385.71527,236.77524,385.24066C236.63565,384.54266,236.55188,384.37512,236.32852,384.37512C236.14703,384.37512,236.04932,384.48682,236.0214,384.72412C235.9516,385.29645,235.29549,385.6734,235.29549,385.15686C235.29549,385.0033,235.22568,384.83582,235.15588,384.79388C234.91856,384.6543,234.45789,384.8637,234.45789,385.12897C234.45789,385.4361,234.19264,385.7013,233.87157,385.7013C233.718,385.7013,233.62029,385.60358,233.62029,385.42212C233.62029,385.24066,233.52257,385.14288,233.35504,385.14288C232.97812,385.14288,232.6012,385.54773,232.68497,385.85486C232.76874,386.162,232.43369,386.4831,231.79153,386.70642C231.06561,386.9577,229.5719,387.96283,228.79013,388.71667C227.60353,389.88928,226.94742,391.7041,227.12889,393.40723C227.436,396.52032,229.06934,398.8935,232.92229,401.79718C237.04048,404.8963,238.24104,406.54358,238.24104,409.04242C238.24104,411.49933,236.95673,413.42584,231.41461,419.2611C229.66962,421.08984,227.46393,423.4212,226.51465,424.42633C220.55374,430.72223,217.60818,435.65015,216.22615,441.66687C215.84923,443.30017,215.47232,445.86884,215.47232,446.79016C215.47232,447.4184,215.27687,447.72552,215.15123,447.29272C215.10934,447.1671,214.32759,445.101,213.40623,442.72784C212.49884,440.3407,211.5635,437.86975,211.35413,437.21362C211.14471,436.5575,210.75385,435.49658,210.48859,434.84045C210.22336,434.18433,208.98093,431.01544,207.73848,427.79065C206.48209,424.56592,205.01628,420.81067,204.47185,419.45654C203.9274,418.10242,202.9502,415.5617,202.30804,413.80273C199.51605,406.25043,198.31549,404.00287,196.58446,403.16522C194.67194,402.2439,187.80362,401.25275,186.85434,401.7553C186.60306,401.8949,186.60306,401.93677,186.81247,402.63477C187.4686,404.88232,191.32153,414.9754,192.88507,418.5771C193.4295,419.80554,194.1275,421.62036,194.46254,422.6255C195.0349,424.3565,195.91437,426.6878,199.87901,436.86462C200.82828,439.3216,202.47556,443.5794,203.52257,446.32953C204.58353,449.07965,205.90973,452.47192,206.48209,453.86792C207.6966,456.7995,208.49231,458.9214,208.49231,459.18665C208.49231,459.4798,208.1154,459.52167,204.44392,459.67523C198.1759,459.9265,194.4765,459.96838,172.16844,459.96838L150.0,459.96838L150.0,562.29504L150.0,664.6217L155.76547,664.6217L161.5449,664.6217L161.62866,604.06335C161.68451,570.7688,161.76826,527.1019,161.8241,507.04147L161.90787,470.578L172.1824,470.6059L182.45695,470.64783L182.48488,481.5366C182.6105,528.80505,182.91763,595.1987,183.15495,625.813C183.26663,642.5231,183.43414,649.9358,183.65752,650.1731C183.9367,650.45233,188.5435,650.2569,193.66681,649.74036L194.39273,649.67053L194.39273,559.96375L194.39273,470.2569L199.39041,470.3546C202.12656,470.41046,209.97208,470.50818,216.79851,470.578C223.6389,470.66174,230.92601,470.74554,232.9921,470.7874C251.85202,471.10846,298.33875,471.23413,299.8604,470.9549C300.09772,470.91302,301.00513,470.84326,301.88458,470.7874C302.76407,470.74554,303.74127,470.6897,304.0484,470.64783C304.35553,470.61987,305.01163,470.56403,305.5142,470.50818C307.3988,470.32672,312.0614,469.48914,315.67706,468.66547C316.0819,468.56775,316.20752,468.33044,316.38904,467.29742C316.59842,466.09686,317.04514,459.85675,316.93347,459.75903C316.86365,459.6892,312.25687,459.54962,307.81757,459.4798C300.4188,459.3542,298.54816,459.18665,298.33875,458.6422C298.24103,458.36304,299.05072,457.45563,299.39972,457.45563C300.27917,457.45563,302.69427,455.6548,304.96976,453.3235C307.9153,450.2802,308.6831,448.6748,308.86456,445.17084C308.99023,442.96515,309.1438,442.16943,309.46484,442.26715C309.77197,442.36487,310.10703,443.27228,310.24664,444.43097C310.48395,446.35742,311.4053,448.10242,313.1084,449.90326C314.09958,450.93628,315.27222,451.78784,316.54257,452.43005C317.77106,453.04425,319.05536,453.97955,319.6836,454.69153C320.4793,455.62683,321.3448,457.58124,322.19635,460.3872C324.16473,466.89258,325.54675,470.80133,327.71057,476.10614C328.4923,477.99072,329.49744,480.4896,329.95813,481.66223C331.2843,484.9568,331.8427,485.97586,334.20197,489.18665C334.70453,489.8707,335.1652,490.65247,335.24896,490.93164C335.31876,491.21085,335.59796,491.79718,335.8632,492.21597C336.97998,493.9889,337.3569,494.72876,337.76175,495.98517C338.27826,497.5487,338.4737,499.47516,338.18054,500.17316C337.81757,501.0387,336.46347,501.54126,332.35925,502.33698C326.25873,503.50958,325.28152,503.719,322.8246,504.29135C321.40063,504.6264,319.3346,505.07312,318.21777,505.26855C313.52722,506.0922,309.78595,506.77625,307.83154,507.1671C303.141,508.10242,298.43646,508.9121,289.2508,510.36395C280.17682,511.80182,278.20847,512.1508,275.08142,512.90466C268.72964,514.4263,264.765,516.3248,260.53513,519.8428C257.60352,522.29974,256.54257,524.14246,256.2215,527.3393C255.77478,531.7646,257.28247,536.7483,260.8562,542.6115C262.48953,545.31976,262.65704,546.1294,262.07074,548.7958C261.81946,549.9126,261.74963,550.6664,261.74963,552.3137C261.74963,554.3239,261.7636,554.4635,262.21033,555.7339C263.18753,558.55383,264.59747,560.60596,267.68265,563.705C269.95813,565.9805,271.8148,567.57196,273.50397,568.6748C275.52814,570.001,276.46347,571.38306,279.7301,577.8605C281.46112,581.3086,282.78735,583.7795,283.3178,584.5613C284.11353,585.7339,285.09076,587.84186,287.29642,593.21643C288.60864,596.42725,289.87903,599.3169,291.8753,603.6864C292.29407,604.6078,293.0479,606.45044,293.56445,607.7767C295.30945,612.3555,295.77014,612.9419,297.41742,612.8441C297.61285,612.8302,298.7715,612.4672,300.0,612.0624C301.22845,611.64355,302.62448,611.2527,303.09912,611.2108C304.8162,611.0293,305.7934,611.75525,306.85437,614.0168C308.54352,617.57654,308.66913,621.13635,307.1894,623.43976C306.39368,624.68225,305.235,625.5896,302.93158,626.7483C300.33502,628.06055,298.604,629.0377,296.0912,630.61523C295.03024,631.2853,293.82968,631.9972,293.4388,632.1926C293.0619,632.3881,292.05676,633.01636,291.21918,633.60266C288.9995,635.12427,286.87762,636.07355,281.15402,638.0978C273.05725,640.95953,271.6333,641.74133,271.047,643.57007C270.89343,644.0168,270.9074,644.17035,271.1447,644.7008C271.59143,645.70593,273.30853,646.85065,275.48627,647.5906C276.36575,647.88367,278.89252,648.34436,280.52582,648.4979C281.02838,648.5398,281.6566,648.6096,281.9218,648.6376C282.18707,648.6654,282.94092,648.7352,283.59702,648.7771C291.81946,649.32153,299.23218,649.2239,304.7464,648.484C307.02185,648.1769,313.9879,648.1489,316.6822,648.44214L318.4132,648.6376L318.5947,649.5449C318.67847,650.0475,318.92975,651.24805,319.13913,652.2252L319.51605,654.0121L320.2978,654.0121C320.7306,654.0261,321.7357,654.054,322.54535,654.0959C325.29547,654.2355,330.39087,654.3611,330.50256,654.2913C330.61426,654.2075,330.8376,648.44214,331.20056,636.0317C331.2843,633.49097,331.396,629.34485,331.47974,626.8181C331.54956,624.3053,331.6752,619.74036,331.75897,616.6692C332.08002,604.2029,332.23358,600.02893,332.38715,599.87537C332.48486,599.7776,333.08514,600.16846,336.50537,602.49976C340.41412,605.16614,341.76825,605.98975,342.21497,605.98975C342.55002,605.98975,343.40158,605.16614,345.7608,602.59753C347.22662,600.99207,348.14798,600.26624,348.6924,600.26624C348.8739,600.26624,349.47418,600.4198,350.0465,600.61523C355.16986,602.3602,367.31503,611.8111,371.55887,617.3672C372.29874,618.34436,372.59192,618.8609,372.95486,619.9219C373.3178,620.9828,373.97394,622.1135,375.35596,624.068C376.71008,625.96655,377.8548,628.17224,378.59467,630.2941C379.72546,633.53284,380.53516,637.4835,380.7166,640.61053C380.81433,642.43933,380.66077,643.0675,379.4323,645.56635C378.21777,648.0512,377.9386,648.94464,377.91064,650.31274C377.89667,651.59705,378.12006,652.18335,378.92975,652.9651C379.55792,653.5933,380.49323,654.04004,382.0149,654.4449C383.034,654.7241,383.52258,654.7799,385.50488,654.766C387.57098,654.766,387.94788,654.7241,389.1624,654.38904C392.2057,653.55145,394.96973,652.2113,396.30994,650.9549C397.5244,649.7822,397.9851,648.8749,398.40393,646.85065C399.04608,643.6957,398.64124,634.2867,397.664,629.93115C397.34296,628.4514,397.13354,626.5808,397.02185,624.068C396.8404,619.7962,396.67285,612.1182,396.67285,607.45557C396.67285,604.6915,396.6031,600.699,396.53326,598.591C396.29596,592.01587,396.1703,591.4994,394.67657,590.941C393.29456,590.42444,391.45184,590.18713,388.05957,590.1173C384.081,590.0196,382.2522,590.18713,380.20007,590.8572C379.39044,591.10846,378.48303,591.35974,378.16193,591.4156C377.35223,591.54126,375.91437,591.29,373.47137,590.578C367.95718,588.9726,363.81107,587.4789,360.8097,585.99915C358.72964,584.98004,358.1573,584.5333,356.7613,582.8302C355.64447,581.46216,352.16846,579.1308,342.43835,573.2257C335.73755,569.1494,334.24384,568.24207,332.42902,567.0834L330.78174,566.0503L330.78174,554.61707L330.78174,543.1978L331.87064,543.04425C337.99908,542.1508,342.2708,541.78784,349.3485,541.5645C351.74963,541.4807,352.00092,541.4807,358.00372,541.1457C360.04187,541.03406,362.35925,540.9084,363.1689,540.8665C363.97858,540.82465,365.48627,540.7269,366.5193,540.6571C367.55237,540.5873,369.15775,540.4896,370.0791,540.4477C372.0614,540.35,377.42206,540.01495,382.29407,539.67993C383.4109,539.5961,385.826,539.44257,387.6687,539.33093C392.05212,539.0657,393.21082,538.98193,394.22986,538.9121C394.69055,538.87024,396.89624,538.74457,399.11584,538.63293C401.3495,538.52124,403.41553,538.39557,403.72266,538.3537C405.35596,538.15826,414.15076,538.0047,416.1889,538.1443C419.8604,538.39557,421.0191,538.87024,422.8897,540.8665C425.13727,543.2816,425.24896,543.64453,426.11444,551.2667C426.47742,554.5333,426.97998,559.196,427.1754,561.24805C427.2173,561.625,427.32898,562.7976,427.44067,563.8307C427.55237,564.8637,427.67798,566.148,427.73383,566.6925C427.7757,567.22296,427.90137,568.54913,428.013,569.6241C428.11072,570.699,428.25037,572.0531,428.29224,572.6255C428.3341,573.1978,428.43182,574.1471,428.50165,574.7195C428.5714,575.2918,428.66913,576.29694,428.711,576.95306C428.75293,577.6092,428.8227,578.2932,428.85065,578.48865C428.89252,578.6841,429.01813,579.9684,429.12982,581.35046C429.409,584.71484,429.46484,585.30115,429.6184,586.93445C429.68823,587.7023,429.78595,588.8609,429.82782,589.517C429.92554,590.8153,429.9395,590.941,430.24664,594.1936C430.58167,597.6278,430.70728,598.926,430.94464,600.8246C431.43323,604.9009,431.86597,609.4938,432.0614,612.7604C432.10333,613.44446,432.1731,614.32385,432.20105,614.7148C432.24292,615.0917,432.39648,617.4509,432.55005,619.94977C432.70355,622.4486,432.88507,625.39417,432.9688,626.511C433.03864,627.6278,433.26196,631.20154,433.4574,634.46814C434.1275,645.8734,434.43463,650.38257,434.64404,651.70874C434.72778,652.2392,434.83948,652.9512,434.88135,653.28625C434.97906,653.9702,434.9372,653.9563,436.8078,654.13776C438.1759,654.2634,450.0,654.34717,450.0,654.22156C450.0,654.1797,449.84644,653.21643,449.651,652.0857C449.24615,649.72644,448.81342,646.52954,448.12933,640.8898C447.4593,635.4314,446.7613,630.26624,445.93762,624.5565C444.9325,617.6184,443.28522,605.80835,442.53143,600.1964C442.336,598.7306,442.08472,596.8879,441.97302,596.07825C441.86133,595.26855,441.5542,592.8534,441.27502,590.7036C440.59094,585.1615,440.0465,581.0713,439.04144,573.74225C438.85992,572.4021,438.58075,570.3221,438.4132,569.1355C438.24567,567.94885,437.65936,563.705,437.08704,559.71246C436.51465,555.7199,435.83063,550.7502,435.5514,548.6841C435.02094,544.6357,435.02094,544.55194,434.78363,542.3323C434.69983,541.52264,434.6021,540.6711,434.57422,540.4477C434.4486,539.6241,434.29504,536.511,434.29504,535.0731C434.29504,533.8586,434.35083,533.4817,434.6161,532.8814C435.23035,531.47144,434.9511,530.84326,433.37366,530.03357C432.94092,529.82416,432.4104,529.4333,432.20105,529.182C431.3495,528.19086,430.35828,525.692,426.67285,515.3895C423.42017,506.32953,422.98743,505.1429,421.7729,501.98798C420.61426,498.98657,419.80457,496.79486,417.89203,491.4063C416.77527,488.27924,416.7473,488.13965,416.9986,487.97214C418.21313,487.10663,419.23218,486.2132,419.34387,485.8921C419.55328,485.33368,419.2741,483.7702,418.45044,480.7688C417.37555,476.8321,416.95673,473.94238,416.6217,468.00934C416.4402,464.8963,416.524,457.2602,416.77527,455.36163C417.02655,453.28156,417.62683,450.1964,418.255,447.68365C419.2741,443.59338,420.26526,440.8153,422.62445,435.53845C423.01538,434.659,423.32245,433.77948,423.30853,433.58405C423.26666,433.24902,423.2387,433.23505,422.1917,433.26294C419.8604,433.3188,413.94135,434.95215,411.5542,436.2085C410.32574,436.8507,409.72546,437.60455,408.6645,439.79626C407.81293,441.58313,407.32434,442.96515,406.87762,444.89166C406.55652,446.34344,406.06793,449.47052,405.95624,450.8944C405.91437,451.4668,405.8446,452.24854,405.80267,452.6394C405.69104,453.64453,405.69104,461.44818,405.80267,463.10944C406.0121,466.4319,406.4309,470.49426,406.86365,473.43982C407.65936,478.8423,409.83716,489.5217,411.9032,498.19086C414.33228,508.39557,415.68634,513.2257,417.33362,517.69293C417.906,519.2565,417.51514,521.60175,416.524,522.551C415.97955,523.0815,414.02515,524.1564,413.21545,524.39374C412.51746,524.5892,409.29266,525.07776,407.56165,525.2313C407.05908,525.2872,406.12378,525.3709,405.46765,525.44073C404.81152,525.5105,403.5551,525.6083,402.67566,525.66406C401.7962,525.7199,400.9167,525.77576,400.72125,525.78973C400.2885,525.8456,398.38995,525.88745,396.75665,525.8735L395.52814,525.8595L395.61194,525.41284C395.66772,525.1615,396.1703,524.26807,396.7287,523.4165C397.92926,521.6436,398.40393,520.7223,399.08795,518.8656C400.59564,514.8451,401.40527,509.47052,401.22382,504.71014C401.14008,502.26715,401.0005,501.19226,400.35828,498.3863C399.88367,496.25043,399.85577,495.1336,400.27454,494.35187C400.45605,494.00287,400.58167,493.51425,400.58167,493.1513C400.58167,492.17407,399.9395,489.89862,399.31128,488.67014C398.18054,486.43652,395.3048,482.4021,392.21967,478.74457C388.47833,474.29138,385.85388,471.47144,379.13916,464.71478L373.38763,458.9214L373.3178,457.7348C373.01068,453.37927,372.6338,449.9312,372.0335,446.162C371.83807,444.96143,371.6147,443.50958,371.53094,442.93726C371.07025,439.82416,369.85574,436.23645,368.16656,432.88605C367.0079,430.6106,366.61703,429.60547,366.39368,428.3072C366.1703,427.10663,365.84924,423.5468,365.75153,421.50867C365.70963,420.50354,365.63983,419.34485,365.6119,418.9261C365.57004,418.50726,365.5142,417.33466,365.4723,416.34344C365.41647,415.33838,365.36063,414.24945,365.3327,413.90045C365.29083,413.55145,365.2071,412.23926,365.1233,410.96887C365.03955,409.69855,364.872,407.75806,364.73242,406.6413C364.41135,403.89117,364.45325,403.02563,365.02557,400.4989C365.72357,397.45563,365.8213,396.85535,365.8213,395.33368C365.8213,392.83484,365.01163,390.685,362.73615,387.23694C359.7906,382.74182,356.60773,377.17175,356.60773,376.5017C356.60773,376.11078,356.00745,374.71478,354.4439,371.46216C353.49463,369.50775,352.67102,367.72083,352.62915,367.51147C352.50348,367.0089,352.32202,366.9391,351.1773,366.95306C350.4095,366.96704,349.32062,367.2602,344.6161,368.72595C341.51697,369.6892,338.90646,370.48492,338.8227,370.48492C338.6831,370.48492,337.1894,368.5724,337.09167,368.25134C337.0498,368.15363,337.20337,368.12567,337.46857,368.18152C337.7059,368.2234,337.90137,368.20947,337.90137,368.15363C337.90137,368.0838,337.76175,367.3858,337.6082,366.5761C337.20337,364.6078,337.21732,362.06708,337.62213,359.9591C337.92926,358.38165,338.76685,355.7013,339.99536,352.4347C341.4053,348.60962,342.1452,345.52448,342.35458,342.52307C342.50815,340.54077,342.35458,337.93024,342.0335,336.53424C341.76825,335.41748,340.86087,332.79297,340.2187,331.28528C339.9395,330.64313,339.71613,330.0987,339.71613,330.0708C339.71613,330.04285,339.88367,329.987,340.10703,329.9591C340.4281,329.90326,340.4281,329.90326,340.05118,329.91724C339.64636,329.94513,339.54865,329.8474,338.8646,328.74457C338.01303,327.36255,336.29596,325.0871,335.6817,324.50073C335.4444,324.26343,335.24896,324.02612,335.24896,323.9563C335.24896,323.90045,335.6538,323.85858,336.15637,323.88654C336.6589,323.91443,337.06375,323.90045,337.06375,323.85858C337.06375,323.719,334.7743,321.49933,334.35553,321.20618C334.1182,321.0666,333.88086,320.98285,333.81107,321.02472C333.7273,321.0666,333.71335,321.0387,333.7692,320.9549C333.8669,320.7874,332.49884,319.92188,331.6054,319.58685C331.27036,319.46118,330.44672,319.30762,329.7627,319.23785C329.0926,319.182,328.40857,319.04242,328.22708,318.95862C328.05957,318.8609,327.36157,318.2467,326.66357,317.5766C325.16986,316.13873,324.33224,315.5105,322.48953,314.37976C320.75848,313.33276,318.48303,312.3556,316.71008,311.90887C315.23035,311.5459,312.88507,311.37836,311.7124,311.55988 Z M300.53046,316.27832C300.349,316.3062,300.0698,316.3062,299.90228,316.27832C299.7208,316.25043,299.8604,316.22247,300.2094,316.22247C300.5584,316.22247,300.698,316.25043,300.53046,316.27832 Z M333.33643,321.02472C333.15497,321.0526,332.87573,321.0526,332.70825,321.02472C332.52673,320.99683,332.66635,320.96887,333.01535,320.96887C333.36435,320.96887,333.50397,320.99683,333.33643,321.02472 Z M336.36575,365.7525C336.36575,365.82233,336.3099,365.8781,336.22614,365.8781C336.15637,365.8781,336.08655,365.7804,336.08655,365.6548C336.08655,365.5431,336.15637,365.48724,336.22614,365.5291C336.3099,365.57104,336.36575,365.66876,336.36575,365.7525 Z M252.64774,388.4654C252.98277,388.82837,252.99673,389.54028,252.68962,389.87537C252.13123,390.48956,251.07027,390.04285,251.07027,389.20526C251.07027,388.42352,252.15913,387.92096,252.64774,388.4654 Z M315.56537,543.29553C315.8027,543.7562,315.95624,545.6129,315.9702,548.46075C315.99814,551.2667,316.1517,553.8353,316.41693,555.8456C316.55652,556.8646,316.54257,557.04614,316.3332,557.3533C315.92834,557.98145,315.25824,557.786,311.6147,555.9573C309.82782,555.07776,307.78967,554.1564,307.06375,553.91907C305.43042,553.4026,302.35925,551.69946,302.62448,551.46216C302.7222,551.37836,304.523,550.2755,306.63098,549.0331C311.83807,545.94794,314.72778,543.9796,314.72778,543.5468C314.72778,543.3095,315.00696,543.0303,315.2443,543.0303C315.342,543.0303,315.48163,543.15594,315.56537,543.29553 Z"/> </g> <g style="fill:rgb(0,0,0); fill-opacity:1.0; stroke-linejoin: miter"> <path d="M268.52023,368.55847C266.49603,369.2704,264.96045,370.6106,264.1089,372.41144C263.84363,372.99774,263.49463,373.72363,263.34106,374.00287C263.20148,374.28204,263.07587,374.77063,263.07587,375.06378C263.07587,375.87347,263.4388,377.82788,263.77386,378.77716C263.9274,379.23785,264.02515,379.62872,263.9972,379.6706C263.80176,379.86603,262.5733,376.69714,262.4337,375.58032C262.3639,375.17548,262.26617,374.95215,262.14053,374.95215C261.86133,374.95215,254.53233,377.40906,244.09027,381.01074C243.12703,381.33185,241.36807,381.9461,240.18149,382.3509C238.99487,382.75574,237.906,383.17456,237.78036,383.30017C237.22195,383.77484,237.33365,385.26855,238.03165,386.66455C238.22708,387.05542,238.50629,387.4463,238.63193,387.5161C238.89716,387.6557,240.4188,387.48816,241.71707,387.1811C242.13586,387.0694,242.84784,386.91583,243.2806,386.8181L244.06235,386.63666L244.7743,387.1671C245.38855,387.59985,245.57004,387.66968,246.01675,387.61383C246.70079,387.5301,248.29224,387.20898,251.00046,386.6087C251.5449,386.497,252.92694,386.20386,254.07166,385.96655C257.57562,385.25458,257.98047,385.07312,258.1759,384.13782C258.28757,383.6073,258.45508,383.52356,260.63284,383.06287C261.40063,382.8954,262.1266,382.72784,262.23825,382.6999C263.71802,382.30902,264.61145,382.2113,265.7143,382.2951C266.37042,382.33698,267.04047,382.4626,267.19403,382.5603C268.3946,383.30017,270.89343,383.66315,272.47092,383.32813C272.91763,383.2444,273.78314,382.92328,274.38342,382.61615C278.15265,380.73157,279.64636,376.02704,277.67798,372.22992C276.9521,370.80603,275.221,369.29834,273.5877,368.6562C272.34528,368.1676,269.77664,368.12567,268.52023,368.55847 Z M253.41554,379.34955C253.69473,379.47516,254.07166,379.71246,254.25314,379.88C254.60214,380.20105,255.11865,381.10846,255.11865,381.37372C255.11865,381.68085,255.85854,383.1327,256.20752,383.4956C256.4588,383.77484,256.71008,383.88654,257.04514,383.88654C257.58957,383.88654,257.58957,384.08197,257.0312,384.48682C256.6822,384.766,256.65424,384.766,256.27734,384.5147C255.53746,384.02612,255.00697,383.18854,254.42065,381.55518C254.08562,380.61987,253.62494,380.10333,252.92694,379.86603C252.39645,379.69855,250.6375,380.07544,248.52954,380.80133C246.89622,381.37372,245.31876,381.80646,245.41647,381.6529C245.45834,381.58313,245.72359,381.45746,246.00279,381.35974C246.29596,381.276,246.82643,381.0387,247.20334,380.85718C248.27826,380.31274,251.78223,379.15405,252.36855,379.14014C252.6617,379.14014,253.12238,379.23785,253.41554,379.34955 Z M250.2885,382.7697C250.13495,382.92328,248.32014,383.6911,247.44067,383.97028C246.44951,384.2774,246.25406,384.48682,246.40762,385.03125L246.54723,385.49188L247.78967,385.47797C248.93439,385.45,249.00418,385.464,248.62726,385.63153C248.0549,385.8828,246.4914,386.148,246.3099,386.03638C246.22615,385.99445,246.01675,385.63153,245.83527,385.25458C245.37459,384.24945,245.48627,384.05402,246.75662,383.66315C247.55234,383.42584,249.92554,382.75574,250.37227,382.6441C250.40018,382.63013,250.37227,382.68597,250.2885,382.7697 Z"/> </g> <g style="fill:rgb(0,0,0); fill-opacity:1.0; stroke-linejoin: miter"> <path d="M254.83946,390.4477C254.57422,390.95026,254.56026,391.2574,254.56026,394.63568L254.56026,398.26532L254.90926,398.26532L255.25826,398.26532L255.25826,395.7804C255.25826,394.39838,255.30014,392.5138,255.35597,391.5924C255.45369,389.7218,255.34201,389.47052,254.83946,390.4477 Z"/> </g> </g> </g> </svg>