<?xml version="1.0" standalone="no"?>
<!DOCTYPE svg PUBLIC "-//W3C//DTD SVG 20010904//EN"
 "http://www.w3.org/TR/2001/REC-SVG-20010904/DTD/svg10.dtd">
<svg version="1.0" xmlns="http://www.w3.org/2000/svg"
 width="299.000000pt" height="248.000000pt" viewBox="0 0 299.000000 248.000000"
 preserveAspectRatio="xMidYMid meet">

<g transform="translate(0.000000,248.000000) scale(0.100000,-0.100000)"
fill="#000000" stroke="none">
<path d="M1425 2219 c-144 -15 -258 -71 -371 -184 -139 -138 -194 -268 -194
-457 0 -195 57 -336 190 -468 318 -318 855 -224 1050 185 139 291 31 659 -243
829 -130 81 -271 112 -432 95z m210 -44 c207 -43 386 -203 455 -405 28 -81 38
-234 21 -322 -21 -106 -82 -220 -164 -302 -85 -86 -174 -138 -282 -166 -208
-53 -418 0 -574 145 -132 123 -193 262 -194 445 -2 177 54 311 183 440 147
148 350 208 555 165z"/>
<path d="M1435 2130 c3 -5 8 -10 11 -10 2 0 4 5 4 10 0 6 -5 10 -11 10 -5 0
-7 -4 -4 -10z"/>
<path d="M1488 2133 c7 -3 16 -2 19 1 4 3 -2 6 -13 5 -11 0 -14 -3 -6 -6z"/>
<path d="M1540 2129 c0 -5 5 -7 10 -4 6 3 10 8 10 11 0 2 -4 4 -10 4 -5 0 -10
-5 -10 -11z"/>
<path d="M1590 2130 c0 -5 5 -10 10 -10 6 0 10 5 10 10 0 6 -4 10 -10 10 -5 0
-10 -4 -10 -10z"/>
<path d="M1385 2120 c3 -5 8 -10 11 -10 2 0 4 5 4 10 0 6 -5 10 -11 10 -5 0
-7 -4 -4 -10z"/>
<path d="M1640 2120 c0 -5 5 -10 10 -10 6 0 10 5 10 10 0 6 -4 10 -10 10 -5 0
-10 -4 -10 -10z"/>
<path d="M1330 2110 c0 -5 5 -10 10 -10 6 0 10 5 10 10 0 6 -4 10 -10 10 -5 0
-10 -4 -10 -10z"/>
<path d="M1690 2100 c0 -5 5 -10 10 -10 6 0 10 5 10 10 0 6 -4 10 -10 10 -5 0
-10 -4 -10 -10z"/>
<path d="M1280 2090 c0 -5 5 -10 10 -10 6 0 10 5 10 10 0 6 -4 10 -10 10 -5 0
-10 -4 -10 -10z"/>
<path d="M1740 2080 c0 -5 5 -10 10 -10 6 0 10 5 10 10 0 6 -4 10 -10 10 -5 0
-10 -4 -10 -10z"/>
<path d="M1230 2070 c0 -5 5 -10 10 -10 6 0 10 5 10 10 0 6 -4 10 -10 10 -5 0
-10 -4 -10 -10z"/>
<path d="M1790 2060 c0 -5 5 -10 11 -10 5 0 7 5 4 10 -3 6 -8 10 -11 10 -2 0
-4 -4 -4 -10z"/>
<path d="M1190 2039 c0 -5 5 -7 10 -4 6 3 10 8 10 11 0 2 -4 4 -10 4 -5 0 -10
-5 -10 -11z"/>
<path d="M1830 2030 c0 -5 5 -10 10 -10 6 0 10 5 10 10 0 6 -4 10 -10 10 -5 0
-10 -4 -10 -10z"/>
<path d="M1145 2010 c3 -5 8 -10 11 -10 2 0 4 5 4 10 0 6 -5 10 -11 10 -5 0
-7 -4 -4 -10z"/>
<path d="M1875 1990 c3 -5 8 -10 11 -10 2 0 4 5 4 10 0 6 -5 10 -11 10 -5 0
-7 -4 -4 -10z"/>
<path d="M1106 1981 c-4 -5 -2 -12 3 -15 5 -4 12 -2 15 3 4 5 2 12 -3 15 -5 4
-12 2 -15 -3z"/>
<path d="M1429 1967 c-51 -34 -69 -78 -69 -169 l0 -78 -40 0 -40 0 0 -72 c0
-85 20 -137 71 -185 36 -34 95 -63 129 -63 19 0 20 -6 20 -115 l0 -115 -60 0
c-33 0 -60 -4 -60 -10 0 -6 50 -10 130 -10 80 0 130 4 130 10 0 6 -27 10 -60
10 l-60 0 0 115 c0 109 1 115 20 115 34 0 93 29 129 63 51 48 71 100 71 185
l0 72 -40 0 -40 0 0 78 c0 126 -51 192 -150 192 -32 0 -58 -7 -81 -23z m140
-11 c58 -31 66 -56 66 -216 0 -123 -3 -150 -18 -173 -53 -81 -161 -81 -214 0
-15 23 -18 50 -18 173 0 126 3 149 19 173 36 54 108 72 165 43z m-207 -321 c8
-91 66 -150 148 -150 82 0 140 59 148 150 4 53 6 55 33 55 28 0 29 -2 29 -50
0 -123 -93 -220 -210 -220 -117 0 -210 97 -210 220 0 48 1 50 29 50 27 0 29
-2 33 -55z"/>
<path d="M1490 1800 c0 -5 9 -10 20 -10 11 0 20 5 20 10 0 6 -9 10 -20 10 -11
0 -20 -4 -20 -10z"/>
<path d="M1480 1740 c0 -5 16 -10 35 -10 19 0 35 5 35 10 0 6 -16 10 -35 10
-19 0 -35 -4 -35 -10z"/>
<path d="M1450 1675 c0 -13 11 -15 63 -13 34 2 62 8 62 13 0 6 -28 11 -62 13
-52 2 -63 0 -63 -13z"/>
<path d="M1910 1960 c0 -5 5 -10 10 -10 6 0 10 5 10 10 0 6 -4 10 -10 10 -5 0
-10 -4 -10 -10z"/>
<path d="M1070 1940 c0 -5 5 -10 10 -10 6 0 10 5 10 10 0 6 -4 10 -10 10 -5 0
-10 -4 -10 -10z"/>
<path d="M1945 1920 c-3 -5 -1 -10 4 -10 6 0 11 5 11 10 0 6 -2 10 -4 10 -3 0
-8 -4 -11 -10z"/>
<path d="M1040 1889 c0 -5 5 -7 10 -4 6 3 10 8 10 11 0 2 -4 4 -10 4 -5 0 -10
-5 -10 -11z"/>
<path d="M1975 1870 c4 -6 11 -8 16 -5 14 9 11 15 -7 15 -8 0 -12 -5 -9 -10z"/>
<path d="M1010 1850 c0 -5 5 -10 10 -10 6 0 10 5 10 10 0 6 -4 10 -10 10 -5 0
-10 -4 -10 -10z"/>
<path d="M2000 1830 c0 -5 5 -10 10 -10 6 0 10 5 10 10 0 6 -4 10 -10 10 -5 0
-10 -4 -10 -10z"/>
<path d="M985 1800 c4 -6 11 -8 16 -5 14 9 11 15 -7 15 -8 0 -12 -5 -9 -10z"/>
<path d="M2020 1780 c0 -5 5 -10 10 -10 6 0 10 5 10 10 0 6 -4 10 -10 10 -5 0
-10 -4 -10 -10z"/>
<path d="M965 1750 c4 -6 11 -8 16 -5 14 9 11 15 -7 15 -8 0 -12 -5 -9 -10z"/>
<path d="M2040 1730 c0 -5 5 -10 10 -10 6 0 10 5 10 10 0 6 -4 10 -10 10 -5 0
-10 -4 -10 -10z"/>
<path d="M955 1700 c3 -5 8 -10 11 -10 2 0 4 5 4 10 0 6 -5 10 -11 10 -5 0 -7
-4 -4 -10z"/>
<path d="M2050 1680 c0 -5 5 -10 10 -10 6 0 10 5 10 10 0 6 -4 10 -10 10 -5 0
-10 -4 -10 -10z"/>
<path d="M940 1650 c0 -5 5 -10 10 -10 6 0 10 5 10 10 0 6 -4 10 -10 10 -5 0
-10 -4 -10 -10z"/>
<path d="M2060 1630 c0 -5 5 -10 11 -10 5 0 7 5 4 10 -3 6 -8 10 -11 10 -2 0
-4 -4 -4 -10z"/>
<path d="M2065 1570 c3 -5 8 -10 11 -10 2 0 4 5 4 10 0 6 -5 10 -11 10 -5 0
-7 -4 -4 -10z"/>
<path d="M940 1550 c0 -5 5 -10 11 -10 5 0 7 5 4 10 -3 6 -8 10 -11 10 -2 0
-4 -4 -4 -10z"/>
<path d="M2060 1520 c0 -5 5 -10 10 -10 6 0 10 5 10 10 0 6 -4 10 -10 10 -5 0
-10 -4 -10 -10z"/>
<path d="M945 1490 c3 -5 8 -10 11 -10 2 0 4 5 4 10 0 6 -5 10 -11 10 -5 0 -7
-4 -4 -10z"/>
<path d="M2055 1470 c-3 -5 -1 -10 4 -10 6 0 11 5 11 10 0 6 -2 10 -4 10 -3 0
-8 -4 -11 -10z"/>
<path d="M950 1440 c0 -5 5 -10 10 -10 6 0 10 5 10 10 0 6 -4 10 -10 10 -5 0
-10 -4 -10 -10z"/>
<path d="M2025 1370 c-3 -5 -1 -10 4 -10 6 0 11 5 11 10 0 6 -2 10 -4 10 -3 0
-8 -4 -11 -10z"/>
<path d="M2000 1320 c0 -5 5 -10 10 -10 6 0 10 5 10 10 0 6 -4 10 -10 10 -5 0
-10 -4 -10 -10z"/>
<path d="M1040 1250 c0 -5 5 -10 10 -10 6 0 10 5 10 10 0 6 -4 10 -10 10 -5 0
-10 -4 -10 -10z"/>
<path d="M1070 1210 c0 -5 5 -10 10 -10 6 0 10 5 10 10 0 6 -4 10 -10 10 -5 0
-10 -4 -10 -10z"/>
<path d="M1910 1190 c0 -5 5 -10 10 -10 6 0 10 5 10 10 0 6 -4 10 -10 10 -5 0
-10 -4 -10 -10z"/>
<path d="M1870 1150 c0 -5 5 -10 10 -10 6 0 10 5 10 10 0 6 -4 10 -10 10 -5 0
-10 -4 -10 -10z"/>
<path d="M1145 1130 c3 -5 8 -10 11 -10 2 0 4 5 4 10 0 6 -5 10 -11 10 -5 0
-7 -4 -4 -10z"/>
<path d="M1830 1120 c0 -5 5 -10 10 -10 6 0 10 5 10 10 0 6 -4 10 -10 10 -5 0
-10 -4 -10 -10z"/>
<path d="M1190 1099 c0 -5 5 -7 10 -4 6 3 10 8 10 11 0 2 -4 4 -10 4 -5 0 -10
-5 -10 -11z"/>
<path d="M1790 1090 c0 -5 5 -10 10 -10 6 0 10 5 10 10 0 6 -4 10 -10 10 -5 0
-10 -4 -10 -10z"/>
<path d="M1235 1080 c-3 -5 -1 -10 4 -10 6 0 11 5 11 10 0 6 -2 10 -4 10 -3 0
-8 -4 -11 -10z"/>
<path d="M1280 1050 c0 -5 5 -10 10 -10 6 0 10 5 10 10 0 6 -4 10 -10 10 -5 0
-10 -4 -10 -10z"/>
<path d="M1695 1040 c3 -5 8 -10 11 -10 2 0 4 5 4 10 0 6 -5 10 -11 10 -5 0
-7 -4 -4 -10z"/>
<path d="M1640 1030 c0 -5 5 -10 10 -10 6 0 10 5 10 10 0 6 -4 10 -10 10 -5 0
-10 -4 -10 -10z"/>
<path d="M1380 1020 c0 -5 5 -10 10 -10 6 0 10 5 10 10 0 6 -4 10 -10 10 -5 0
-10 -4 -10 -10z"/>
<path d="M1590 1020 c0 -5 5 -10 10 -10 6 0 10 5 10 10 0 6 -4 10 -10 10 -5 0
-10 -4 -10 -10z"/>
<path d="M1435 1010 c3 -5 8 -10 11 -10 2 0 4 5 4 10 0 6 -5 10 -11 10 -5 0
-7 -4 -4 -10z"/>
<path d="M1540 1010 c0 -5 5 -10 10 -10 6 0 10 5 10 10 0 6 -4 10 -10 10 -5 0
-10 -4 -10 -10z"/>
<path d="M200 640 c0 -29 2 -30 45 -30 l45 0 0 -115 0 -115 30 0 29 0 3 113 3
112 48 3 c45 3 47 5 47 33 l0 29 -125 0 -125 0 0 -30z"/>
<path d="M621 648 c-5 -13 -30 -75 -55 -138 -25 -63 -46 -118 -46 -122 0 -4
15 -8 34 -8 28 0 35 4 40 25 6 23 11 25 65 25 52 0 59 -3 69 -25 9 -20 19 -25
46 -25 l34 0 -57 143 c-56 138 -58 142 -89 145 -26 3 -34 -1 -41 -20z m73
-146 c7 -20 4 -22 -33 -22 l-40 0 14 41 c8 22 17 45 21 51 6 10 22 -19 38 -70z"/>
<path d="M900 525 l0 -145 95 0 95 0 0 30 0 30 -60 0 -60 0 0 115 0 115 -35 0
-35 0 0 -145z"/>
<path d="M1190 525 l0 -145 30 0 30 0 0 60 c0 57 1 60 25 60 19 0 31 -12 57
-60 31 -57 35 -60 71 -60 l38 0 -37 66 c-32 58 -36 70 -27 93 6 14 21 50 32
79 l21 53 -36 -3 c-33 -3 -39 -7 -51 -42 -18 -53 -31 -66 -64 -66 -28 0 -29 1
-29 55 0 54 0 55 -30 55 l-30 0 0 -145z"/>
<path d="M1604 660 c-32 -13 -71 -65 -78 -104 -10 -53 9 -110 49 -145 66 -57
181 -41 225 32 26 42 25 47 -10 47 -18 0 -39 -10 -54 -25 -54 -54 -146 -17
-146 60 0 76 93 115 144 60 15 -16 34 -25 55 -25 17 0 31 3 31 6 0 19 -46 76
-70 89 -31 16 -112 19 -146 5z"/>
<path d="M2001 648 c-5 -13 -30 -75 -55 -138 -25 -63 -46 -118 -46 -122 0 -4
15 -8 34 -8 28 0 35 4 40 25 6 23 11 25 65 25 52 0 59 -3 69 -25 9 -20 19 -25
46 -25 l34 0 -57 143 c-56 138 -58 142 -89 145 -26 3 -34 -1 -41 -20z m73
-146 c7 -20 4 -22 -33 -22 l-40 0 14 41 c8 22 17 45 21 51 6 10 22 -19 38 -70z"/>
<path d="M2296 649 c-20 -16 -26 -29 -26 -58 0 -47 19 -65 91 -89 45 -16 54
-23 54 -43 0 -20 -6 -25 -32 -27 -24 -2 -35 2 -45 17 -9 14 -23 21 -45 21 -38
0 -40 -4 -13 -47 23 -38 56 -49 133 -45 38 3 77 43 77 80 0 42 -27 69 -89 90
-61 20 -86 46 -61 62 25 16 59 11 72 -10 9 -13 24 -20 45 -20 31 0 32 1 21 30
-14 43 -44 60 -104 60 -37 0 -59 -6 -78 -21z"/>
<path d="M2570 640 c0 -29 2 -30 45 -30 l45 0 0 -115 0 -115 35 0 35 0 0 115
0 115 45 0 c43 0 45 1 45 30 l0 30 -125 0 -125 0 0 -30z"/>
<path d="M478 195 c3 -35 0 -60 -8 -70 -11 -13 -6 -15 34 -15 33 0 48 5 53 15
8 23 -7 33 -18 12 -6 -9 -17 -17 -24 -17 -19 0 -21 100 -3 118 9 9 6 12 -13
12 -25 0 -26 -2 -21 -55z"/>
<path d="M708 195 c3 -35 0 -60 -8 -70 -11 -13 -6 -15 39 -15 46 0 51 2 51 23
-1 20 -2 20 -11 5 -16 -28 -49 -23 -49 7 0 18 5 25 19 25 11 0 23 5 26 10 4 6
-5 10 -19 10 -19 0 -26 5 -26 20 0 13 7 20 20 20 11 0 20 -4 20 -10 0 -5 5
-10 10 -10 6 0 10 9 10 20 0 17 -7 20 -43 20 l-44 0 5 -55z"/>
<path d="M930 228 c0 -17 3 -19 12 -10 25 25 38 13 38 -38 0 -36 -5 -52 -17
-59 -14 -8 -10 -10 22 -10 22 0 34 3 28 6 -19 7 -18 113 1 113 8 0 17 -6 19
-12 3 -7 6 -3 6 10 1 20 -3 22 -54 22 -50 0 -55 -2 -55 -22z"/>
<path d="M1182 225 c0 -16 2 -22 5 -12 2 9 2 23 0 30 -3 6 -5 -1 -5 -18z"/>
<path d="M1358 239 c-27 -15 -22 -45 12 -69 34 -24 38 -38 14 -47 -10 -4 -22
1 -29 11 -8 11 -15 13 -20 7 -10 -18 4 -31 34 -31 55 0 70 50 21 75 -34 18
-40 45 -10 45 11 0 20 -4 20 -10 0 -5 5 -10 10 -10 6 0 10 9 10 20 0 22 -32
27 -62 9z"/>
<path d="M1721 228 c0 -13 3 -17 6 -10 2 6 11 12 19 12 19 0 20 -106 2 -113
-7 -3 5 -6 26 -6 36 -1 38 0 21 12 -14 11 -17 22 -12 56 6 51 12 58 32 41 13
-10 15 -9 15 9 0 19 -6 21 -55 21 -51 0 -55 -2 -54 -22z"/>
<path d="M1990 193 c-12 -32 -26 -63 -32 -70 -8 -10 -3 -13 23 -13 24 0 30 3
20 9 -20 13 -6 41 20 41 17 0 20 -5 17 -25 -4 -20 -1 -25 17 -25 l21 0 -21 67
c-12 37 -27 69 -33 71 -5 1 -20 -23 -32 -55z m40 -10 c0 -7 -7 -13 -16 -13
-11 0 -14 5 -10 16 3 9 6 21 6 27 0 16 20 -14 20 -30z"/>
<path d="M2225 180 l0 -70 43 0 c36 0 42 3 42 22 0 20 -1 20 -19 4 -11 -10
-25 -15 -30 -11 -15 9 -14 98 1 113 9 9 7 12 -12 12 -24 0 -25 -2 -25 -70z"/>
<path d="M2458 189 c3 -45 1 -64 -9 -70 -10 -6 -3 -8 21 -8 19 0 29 3 23 6
-17 6 -17 105 -1 121 9 9 6 12 -13 12 -25 0 -25 -1 -21 -61z"/>
<path d="M2523 236 c3 -8 -3 -22 -14 -32 -10 -9 -19 -21 -19 -26 0 -19 45 -68
61 -68 15 0 12 6 -12 32 -16 18 -29 35 -29 38 0 4 11 17 25 30 31 29 32 40 4
40 -14 0 -19 -5 -16 -14z"/>
</g>
</svg>
